<mxfile host="app.diagrams.net" modified="2020-12-07T02:50:05.698Z" agent="5.0 (Windows NT 10.0; Win64; x64) AppleWebKit/537.36 (KHTML, like Gecko) Chrome/86.0.4240.198 Safari/537.36" etag="72u8KvFiECg8m0EJzxzE" version="13.10.8" type="github">
  <diagram id="C5RBs43oDa-KdzZeNtuy" name="Page-1">
    <mxGraphModel dx="1422" dy="1931" grid="1" gridSize="10" guides="1" tooltips="1" connect="1" arrows="1" fold="1" page="1" pageScale="1" pageWidth="827" pageHeight="1169" math="0" shadow="0">
      <root>
        <mxCell id="WIyWlLk6GJQsqaUBKTNV-0" />
        <mxCell id="WIyWlLk6GJQsqaUBKTNV-1" parent="WIyWlLk6GJQsqaUBKTNV-0" />
        <mxCell id="xO4IFPJXhsTj8Eo80LVw-0" value="XTabBottom" style="swimlane;fontStyle=1;align=center;verticalAlign=top;childLayout=stackLayout;horizontal=1;startSize=26;horizontalStack=0;resizeParent=1;resizeParentMax=0;resizeLast=0;collapsible=1;marginBottom=0;" vertex="1" parent="WIyWlLk6GJQsqaUBKTNV-1">
          <mxGeometry x="446.5" y="240" width="160" height="60" as="geometry" />
        </mxCell>
        <mxCell id="xO4IFPJXhsTj8Eo80LVw-1" value="XTabBottomInfo tabInfo" style="text;strokeColor=none;fillColor=none;align=left;verticalAlign=top;spacingLeft=4;spacingRight=4;overflow=hidden;rotatable=0;points=[[0,0.5],[1,0.5]];portConstraint=eastwest;" vertex="1" parent="xO4IFPJXhsTj8Eo80LVw-0">
          <mxGeometry y="26" width="160" height="26" as="geometry" />
        </mxCell>
        <mxCell id="xO4IFPJXhsTj8Eo80LVw-2" value="" style="line;strokeWidth=1;fillColor=none;align=left;verticalAlign=middle;spacingTop=-1;spacingLeft=3;spacingRight=3;rotatable=0;labelPosition=right;points=[];portConstraint=eastwest;" vertex="1" parent="xO4IFPJXhsTj8Eo80LVw-0">
          <mxGeometry y="52" width="160" height="8" as="geometry" />
        </mxCell>
        <mxCell id="xO4IFPJXhsTj8Eo80LVw-4" value="XTabBottomInfo" style="swimlane;fontStyle=1;align=center;verticalAlign=top;childLayout=stackLayout;horizontal=1;startSize=26;horizontalStack=0;resizeParent=1;resizeParentMax=0;resizeLast=0;collapsible=1;marginBottom=0;" vertex="1" parent="WIyWlLk6GJQsqaUBKTNV-1">
          <mxGeometry x="279" y="390" width="281" height="216" as="geometry" />
        </mxCell>
        <mxCell id="xO4IFPJXhsTj8Eo80LVw-5" value="Class &lt;? extends Fragment&gt; fragment&#xa;" style="text;strokeColor=none;fillColor=none;align=left;verticalAlign=top;spacingLeft=4;spacingRight=4;overflow=hidden;rotatable=0;points=[[0,0.5],[1,0.5]];portConstraint=eastwest;" vertex="1" parent="xO4IFPJXhsTj8Eo80LVw-4">
          <mxGeometry y="26" width="281" height="26" as="geometry" />
        </mxCell>
        <mxCell id="xO4IFPJXhsTj8Eo80LVw-8" value="String name" style="text;strokeColor=none;fillColor=none;align=left;verticalAlign=top;spacingLeft=4;spacingRight=4;overflow=hidden;rotatable=0;points=[[0,0.5],[1,0.5]];portConstraint=eastwest;" vertex="1" parent="xO4IFPJXhsTj8Eo80LVw-4">
          <mxGeometry y="52" width="281" height="26" as="geometry" />
        </mxCell>
        <mxCell id="xO4IFPJXhsTj8Eo80LVw-9" value="Bitmap defaultBitmap" style="text;strokeColor=none;fillColor=none;align=left;verticalAlign=top;spacingLeft=4;spacingRight=4;overflow=hidden;rotatable=0;points=[[0,0.5],[1,0.5]];portConstraint=eastwest;" vertex="1" parent="xO4IFPJXhsTj8Eo80LVw-4">
          <mxGeometry y="78" width="281" height="26" as="geometry" />
        </mxCell>
        <mxCell id="xO4IFPJXhsTj8Eo80LVw-10" value="Bitmap selectedBitmap" style="text;strokeColor=none;fillColor=none;align=left;verticalAlign=top;spacingLeft=4;spacingRight=4;overflow=hidden;rotatable=0;points=[[0,0.5],[1,0.5]];portConstraint=eastwest;" vertex="1" parent="xO4IFPJXhsTj8Eo80LVw-4">
          <mxGeometry y="104" width="281" height="26" as="geometry" />
        </mxCell>
        <mxCell id="xO4IFPJXhsTj8Eo80LVw-11" value="Color defaultColor" style="text;strokeColor=none;fillColor=none;align=left;verticalAlign=top;spacingLeft=4;spacingRight=4;overflow=hidden;rotatable=0;points=[[0,0.5],[1,0.5]];portConstraint=eastwest;" vertex="1" parent="xO4IFPJXhsTj8Eo80LVw-4">
          <mxGeometry y="130" width="281" height="26" as="geometry" />
        </mxCell>
        <mxCell id="xO4IFPJXhsTj8Eo80LVw-12" value="Color tintColor" style="text;strokeColor=none;fillColor=none;align=left;verticalAlign=top;spacingLeft=4;spacingRight=4;overflow=hidden;rotatable=0;points=[[0,0.5],[1,0.5]];portConstraint=eastwest;" vertex="1" parent="xO4IFPJXhsTj8Eo80LVw-4">
          <mxGeometry y="156" width="281" height="26" as="geometry" />
        </mxCell>
        <mxCell id="xO4IFPJXhsTj8Eo80LVw-13" value="TabType tabType;" style="text;strokeColor=none;fillColor=none;align=left;verticalAlign=top;spacingLeft=4;spacingRight=4;overflow=hidden;rotatable=0;points=[[0,0.5],[1,0.5]];portConstraint=eastwest;" vertex="1" parent="xO4IFPJXhsTj8Eo80LVw-4">
          <mxGeometry y="182" width="281" height="26" as="geometry" />
        </mxCell>
        <mxCell id="xO4IFPJXhsTj8Eo80LVw-6" value="" style="line;strokeWidth=1;fillColor=none;align=left;verticalAlign=middle;spacingTop=-1;spacingLeft=3;spacingRight=3;rotatable=0;labelPosition=right;points=[];portConstraint=eastwest;" vertex="1" parent="xO4IFPJXhsTj8Eo80LVw-4">
          <mxGeometry y="208" width="281" height="8" as="geometry" />
        </mxCell>
        <mxCell id="xO4IFPJXhsTj8Eo80LVw-17" style="rounded=0;orthogonalLoop=1;jettySize=auto;html=1;" edge="1" parent="WIyWlLk6GJQsqaUBKTNV-1" source="xO4IFPJXhsTj8Eo80LVw-14" target="xO4IFPJXhsTj8Eo80LVw-4">
          <mxGeometry relative="1" as="geometry" />
        </mxCell>
        <mxCell id="xO4IFPJXhsTj8Eo80LVw-14" value="单个Tab的数据模型" style="shape=note2;boundedLbl=1;whiteSpace=wrap;html=1;size=25;verticalAlign=top;align=center;" vertex="1" parent="WIyWlLk6GJQsqaUBKTNV-1">
          <mxGeometry x="219.5" y="293" width="120" height="60" as="geometry" />
        </mxCell>
        <mxCell id="xO4IFPJXhsTj8Eo80LVw-18" value="" style="endArrow=open;html=1;endSize=12;startArrow=diamondThin;startSize=14;startFill=0;align=left;verticalAlign=bottom;" edge="1" parent="WIyWlLk6GJQsqaUBKTNV-1" source="xO4IFPJXhsTj8Eo80LVw-0" target="xO4IFPJXhsTj8Eo80LVw-4">
          <mxGeometry x="-1" y="3" relative="1" as="geometry">
            <mxPoint x="180" y="300" as="sourcePoint" />
            <mxPoint x="340" y="300" as="targetPoint" />
          </mxGeometry>
        </mxCell>
        <mxCell id="xO4IFPJXhsTj8Eo80LVw-19" value="RelativeLayout" style="swimlane;fontStyle=1;align=center;verticalAlign=top;childLayout=stackLayout;horizontal=1;startSize=26;horizontalStack=0;resizeParent=1;resizeParentMax=0;resizeLast=0;collapsible=1;marginBottom=0;" vertex="1" parent="WIyWlLk6GJQsqaUBKTNV-1">
          <mxGeometry x="343" y="150" width="140.5" height="34" as="geometry" />
        </mxCell>
        <mxCell id="xO4IFPJXhsTj8Eo80LVw-21" value="" style="line;strokeWidth=1;fillColor=none;align=left;verticalAlign=middle;spacingTop=-1;spacingLeft=3;spacingRight=3;rotatable=0;labelPosition=right;points=[];portConstraint=eastwest;" vertex="1" parent="xO4IFPJXhsTj8Eo80LVw-19">
          <mxGeometry y="26" width="140.5" height="8" as="geometry" />
        </mxCell>
        <mxCell id="xO4IFPJXhsTj8Eo80LVw-24" value="" style="endArrow=block;endSize=16;endFill=0;html=1;" edge="1" parent="WIyWlLk6GJQsqaUBKTNV-1" source="xO4IFPJXhsTj8Eo80LVw-0" target="xO4IFPJXhsTj8Eo80LVw-19">
          <mxGeometry width="160" relative="1" as="geometry">
            <mxPoint x="150" y="290" as="sourcePoint" />
            <mxPoint x="310" y="290" as="targetPoint" />
          </mxGeometry>
        </mxCell>
        <mxCell id="xO4IFPJXhsTj8Eo80LVw-27" style="rounded=0;orthogonalLoop=1;jettySize=auto;html=1;entryX=0.001;entryY=0.164;entryDx=0;entryDy=0;entryPerimeter=0;" edge="1" parent="WIyWlLk6GJQsqaUBKTNV-1" source="xO4IFPJXhsTj8Eo80LVw-25" target="xO4IFPJXhsTj8Eo80LVw-0">
          <mxGeometry relative="1" as="geometry" />
        </mxCell>
        <mxCell id="xO4IFPJXhsTj8Eo80LVw-25" value="底部单个Tab" style="shape=note2;boundedLbl=1;whiteSpace=wrap;html=1;size=25;verticalAlign=top;align=center;" vertex="1" parent="WIyWlLk6GJQsqaUBKTNV-1">
          <mxGeometry x="219.5" y="190" width="120" height="60" as="geometry" />
        </mxCell>
        <mxCell id="xO4IFPJXhsTj8Eo80LVw-29" value="XTabBottomLayout" style="swimlane;fontStyle=1;align=center;verticalAlign=top;childLayout=stackLayout;horizontal=1;startSize=26;horizontalStack=0;resizeParent=1;resizeParentMax=0;resizeLast=0;collapsible=1;marginBottom=0;" vertex="1" parent="WIyWlLk6GJQsqaUBKTNV-1">
          <mxGeometry x="670" y="207" width="281" height="86" as="geometry" />
        </mxCell>
        <mxCell id="xO4IFPJXhsTj8Eo80LVw-30" value="List&lt;OnTabSelectedChangeListener&gt; tabSelectedChangeListeners" style="text;strokeColor=none;fillColor=none;align=left;verticalAlign=top;spacingLeft=4;spacingRight=4;overflow=hidden;rotatable=0;points=[[0,0.5],[1,0.5]];portConstraint=eastwest;" vertex="1" parent="xO4IFPJXhsTj8Eo80LVw-29">
          <mxGeometry y="26" width="281" height="26" as="geometry" />
        </mxCell>
        <mxCell id="xO4IFPJXhsTj8Eo80LVw-31" value="XTabBottomInfo selectedInfo" style="text;strokeColor=none;fillColor=none;align=left;verticalAlign=top;spacingLeft=4;spacingRight=4;overflow=hidden;rotatable=0;points=[[0,0.5],[1,0.5]];portConstraint=eastwest;" vertex="1" parent="xO4IFPJXhsTj8Eo80LVw-29">
          <mxGeometry y="52" width="281" height="26" as="geometry" />
        </mxCell>
        <mxCell id="xO4IFPJXhsTj8Eo80LVw-37" value="" style="line;strokeWidth=1;fillColor=none;align=left;verticalAlign=middle;spacingTop=-1;spacingLeft=3;spacingRight=3;rotatable=0;labelPosition=right;points=[];portConstraint=eastwest;" vertex="1" parent="xO4IFPJXhsTj8Eo80LVw-29">
          <mxGeometry y="78" width="281" height="8" as="geometry" />
        </mxCell>
        <mxCell id="xO4IFPJXhsTj8Eo80LVw-38" value="" style="endArrow=open;html=1;endSize=12;startArrow=diamondThin;startSize=14;startFill=1;align=left;verticalAlign=bottom;" edge="1" parent="WIyWlLk6GJQsqaUBKTNV-1" source="xO4IFPJXhsTj8Eo80LVw-29" target="xO4IFPJXhsTj8Eo80LVw-4">
          <mxGeometry x="-1" y="3" relative="1" as="geometry">
            <mxPoint x="650" y="340" as="sourcePoint" />
            <mxPoint x="810" y="340" as="targetPoint" />
          </mxGeometry>
        </mxCell>
        <mxCell id="xO4IFPJXhsTj8Eo80LVw-39" value="FrameLayout" style="swimlane;fontStyle=1;align=center;verticalAlign=top;childLayout=stackLayout;horizontal=1;startSize=26;horizontalStack=0;resizeParent=1;resizeParentMax=0;resizeLast=0;collapsible=1;marginBottom=0;" vertex="1" parent="WIyWlLk6GJQsqaUBKTNV-1">
          <mxGeometry x="780" y="96" width="140.5" height="34" as="geometry" />
        </mxCell>
        <mxCell id="xO4IFPJXhsTj8Eo80LVw-40" value="" style="line;strokeWidth=1;fillColor=none;align=left;verticalAlign=middle;spacingTop=-1;spacingLeft=3;spacingRight=3;rotatable=0;labelPosition=right;points=[];portConstraint=eastwest;" vertex="1" parent="xO4IFPJXhsTj8Eo80LVw-39">
          <mxGeometry y="26" width="140.5" height="8" as="geometry" />
        </mxCell>
        <mxCell id="xO4IFPJXhsTj8Eo80LVw-41" value="" style="endArrow=block;endSize=16;endFill=0;html=1;" edge="1" parent="WIyWlLk6GJQsqaUBKTNV-1" source="xO4IFPJXhsTj8Eo80LVw-29" target="xO4IFPJXhsTj8Eo80LVw-39">
          <mxGeometry width="160" relative="1" as="geometry">
            <mxPoint x="630" y="180" as="sourcePoint" />
            <mxPoint x="790" y="180" as="targetPoint" />
          </mxGeometry>
        </mxCell>
        <mxCell id="xO4IFPJXhsTj8Eo80LVw-43" style="edgeStyle=none;rounded=0;orthogonalLoop=1;jettySize=auto;html=1;" edge="1" parent="WIyWlLk6GJQsqaUBKTNV-1" source="xO4IFPJXhsTj8Eo80LVw-42" target="xO4IFPJXhsTj8Eo80LVw-29">
          <mxGeometry relative="1" as="geometry" />
        </mxCell>
        <mxCell id="xO4IFPJXhsTj8Eo80LVw-42" value="XTabBottom容器控件" style="shape=note2;boundedLbl=1;whiteSpace=wrap;html=1;size=25;verticalAlign=top;align=center;" vertex="1" parent="WIyWlLk6GJQsqaUBKTNV-1">
          <mxGeometry x="831" y="320" width="120" height="60" as="geometry" />
        </mxCell>
        <mxCell id="xO4IFPJXhsTj8Eo80LVw-45" value="" style="endArrow=block;dashed=1;endFill=0;endSize=12;html=1;" edge="1" parent="WIyWlLk6GJQsqaUBKTNV-1" source="xO4IFPJXhsTj8Eo80LVw-29" target="xO4IFPJXhsTj8Eo80LVw-44">
          <mxGeometry width="160" relative="1" as="geometry">
            <mxPoint x="620" y="410" as="sourcePoint" />
            <mxPoint x="780" y="410" as="targetPoint" />
          </mxGeometry>
        </mxCell>
        <mxCell id="xO4IFPJXhsTj8Eo80LVw-47" style="edgeStyle=none;rounded=0;orthogonalLoop=1;jettySize=auto;html=1;" edge="1" parent="WIyWlLk6GJQsqaUBKTNV-1" source="xO4IFPJXhsTj8Eo80LVw-46" target="xO4IFPJXhsTj8Eo80LVw-44">
          <mxGeometry relative="1" as="geometry" />
        </mxCell>
        <mxCell id="xO4IFPJXhsTj8Eo80LVw-46" value="XTabBottom容器的对外接口" style="shape=note2;boundedLbl=1;whiteSpace=wrap;html=1;size=25;verticalAlign=top;align=center;" vertex="1" parent="WIyWlLk6GJQsqaUBKTNV-1">
          <mxGeometry x="831" y="630" width="120" height="60" as="geometry" />
        </mxCell>
        <mxCell id="xO4IFPJXhsTj8Eo80LVw-48" value="&lt;p style=&quot;margin: 0px ; margin-top: 4px ; text-align: center&quot;&gt;&lt;i&gt;&amp;lt;&amp;lt;Interface&amp;gt;&amp;gt;&lt;/i&gt;&lt;br&gt;&lt;b&gt;IXTab&lt;/b&gt;&lt;/p&gt;&lt;hr size=&quot;1&quot;&gt;&lt;p style=&quot;margin: 0px ; margin-left: 4px&quot;&gt;&lt;br&gt;&lt;/p&gt;&lt;hr size=&quot;1&quot;&gt;&lt;p style=&quot;margin: 0px ; margin-left: 4px&quot;&gt;void setXTabInfo(@NonNull D data);&lt;/p&gt;&lt;p style=&quot;margin: 0px ; margin-left: 4px&quot;&gt;void resetHeight(@Px int height)&lt;/p&gt;" style="verticalAlign=top;align=left;overflow=fill;fontSize=12;fontFamily=Helvetica;html=1;" vertex="1" parent="WIyWlLk6GJQsqaUBKTNV-1">
          <mxGeometry x="414" y="20" width="225" height="110" as="geometry" />
        </mxCell>
        <mxCell id="xO4IFPJXhsTj8Eo80LVw-50" style="edgeStyle=none;rounded=0;orthogonalLoop=1;jettySize=auto;html=1;" edge="1" parent="WIyWlLk6GJQsqaUBKTNV-1" source="xO4IFPJXhsTj8Eo80LVw-49" target="xO4IFPJXhsTj8Eo80LVw-48">
          <mxGeometry relative="1" as="geometry" />
        </mxCell>
        <mxCell id="xO4IFPJXhsTj8Eo80LVw-49" value="XTabBottom对外接口" style="shape=note2;boundedLbl=1;whiteSpace=wrap;html=1;size=25;verticalAlign=top;align=center;" vertex="1" parent="WIyWlLk6GJQsqaUBKTNV-1">
          <mxGeometry x="240" y="10" width="120" height="60" as="geometry" />
        </mxCell>
        <mxCell id="xO4IFPJXhsTj8Eo80LVw-51" value="&lt;p style=&quot;margin: 0px ; margin-top: 4px ; text-align: center&quot;&gt;&lt;i&gt;&amp;lt;&amp;lt;Interface&amp;gt;&amp;gt;&lt;/i&gt;&lt;br&gt;&lt;b&gt;OnTabSelectedListener&lt;/b&gt;&lt;br&gt;&lt;/p&gt;&lt;hr size=&quot;1&quot;&gt;&lt;p style=&quot;margin: 0px ; margin-left: 4px&quot;&gt;&lt;br&gt;&lt;/p&gt;&lt;hr size=&quot;1&quot;&gt;&lt;p style=&quot;margin: 0px ; margin-left: 4px&quot;&gt;void onTabSelectedChange(int index, @Nullable D prevInfo, @NonNull D nextInfo)&lt;br&gt;&lt;/p&gt;" style="verticalAlign=top;align=left;overflow=fill;fontSize=12;fontFamily=Helvetica;html=1;" vertex="1" parent="WIyWlLk6GJQsqaUBKTNV-1">
          <mxGeometry x="414" y="-160" width="480" height="90" as="geometry" />
        </mxCell>
        <mxCell id="xO4IFPJXhsTj8Eo80LVw-52" value="" style="endArrow=block;dashed=1;endFill=0;endSize=12;html=1;" edge="1" parent="WIyWlLk6GJQsqaUBKTNV-1" source="xO4IFPJXhsTj8Eo80LVw-0" target="xO4IFPJXhsTj8Eo80LVw-48">
          <mxGeometry width="160" relative="1" as="geometry">
            <mxPoint x="420" y="190" as="sourcePoint" />
            <mxPoint x="580" y="190" as="targetPoint" />
          </mxGeometry>
        </mxCell>
        <mxCell id="xO4IFPJXhsTj8Eo80LVw-53" value="" style="endArrow=block;endSize=16;endFill=0;html=1;" edge="1" parent="WIyWlLk6GJQsqaUBKTNV-1" source="xO4IFPJXhsTj8Eo80LVw-48" target="xO4IFPJXhsTj8Eo80LVw-51">
          <mxGeometry width="160" relative="1" as="geometry">
            <mxPoint x="670" y="10" as="sourcePoint" />
            <mxPoint x="830" y="10" as="targetPoint" />
          </mxGeometry>
        </mxCell>
        <mxCell id="xO4IFPJXhsTj8Eo80LVw-55" style="edgeStyle=none;rounded=0;orthogonalLoop=1;jettySize=auto;html=1;" edge="1" parent="WIyWlLk6GJQsqaUBKTNV-1" source="xO4IFPJXhsTj8Eo80LVw-54" target="xO4IFPJXhsTj8Eo80LVw-51">
          <mxGeometry relative="1" as="geometry" />
        </mxCell>
        <mxCell id="xO4IFPJXhsTj8Eo80LVw-54" value="Tab被选中的回调" style="shape=note2;boundedLbl=1;whiteSpace=wrap;html=1;size=25;verticalAlign=top;align=center;" vertex="1" parent="WIyWlLk6GJQsqaUBKTNV-1">
          <mxGeometry x="790.25" y="-20" width="120" height="60" as="geometry" />
        </mxCell>
        <mxCell id="xO4IFPJXhsTj8Eo80LVw-57" value="" style="group" vertex="1" connectable="0" parent="WIyWlLk6GJQsqaUBKTNV-1">
          <mxGeometry x="580" y="440" width="410" height="145" as="geometry" />
        </mxCell>
        <mxCell id="xO4IFPJXhsTj8Eo80LVw-44" value="&lt;p style=&quot;margin: 0px ; margin-top: 4px ; text-align: center&quot;&gt;&lt;i&gt;&amp;lt;&amp;lt;Interface&amp;gt;&amp;gt;&lt;/i&gt;&lt;br&gt;&lt;b&gt;IXTabLayout&lt;/b&gt;&lt;/p&gt;&lt;hr size=&quot;1&quot;&gt;&lt;p style=&quot;margin: 0px ; margin-left: 4px&quot;&gt;&lt;br&gt;&lt;/p&gt;&lt;hr size=&quot;1&quot;&gt;&lt;p style=&quot;margin: 0px ; margin-left: 4px&quot;&gt;Tab findTab(@NonNull D data)&lt;/p&gt;&lt;p style=&quot;margin: 0px ; margin-left: 4px&quot;&gt;void addTabSelectedChangeListener(OnTabSelectedListener&amp;lt;D&amp;gt; listener)&lt;/p&gt;&lt;p style=&quot;margin: 0px ; margin-left: 4px&quot;&gt;void defaultSelected(@NonNull D defaultInfo)&lt;/p&gt;&lt;p style=&quot;margin: 0px ; margin-left: 4px&quot;&gt;void inflateInfo(@NonNull List&amp;lt;D&amp;gt; infoList)&lt;/p&gt;" style="verticalAlign=top;align=left;overflow=fill;fontSize=12;fontFamily=Helvetica;html=1;" vertex="1" parent="xO4IFPJXhsTj8Eo80LVw-57">
          <mxGeometry y="13" width="410" height="132" as="geometry" />
        </mxCell>
        <mxCell id="xO4IFPJXhsTj8Eo80LVw-56" value="Tab extends ViewGroup,D" style="fontStyle=0;dashed=1;" vertex="1" parent="xO4IFPJXhsTj8Eo80LVw-57">
          <mxGeometry x="270" width="140" height="17" as="geometry" />
        </mxCell>
      </root>
    </mxGraphModel>
  </diagram>
</mxfile>
